<svg id="visual" viewBox="0 0 900 600" width="900" height="600" xmlns="http://www.w3.org/2000/svg" xmlns:xlink="http://www.w3.org/1999/xlink" version="1.1"><rect x="0" y="0" width="900" height="600" fill="#ffffff"></rect><path d="M0 536L21.5 525C43 514 86 492 128.8 490.2C171.7 488.3 214.3 506.7 257.2 506.5C300 506.3 343 487.7 385.8 490.7C428.7 493.7 471.3 518.3 514.2 517.7C557 517 600 491 642.8 478C685.7 465 728.3 465 771.2 477.5C814 490 857 515 878.5 527.5L900 540L900 601L878.5 601C857 601 814 601 771.2 601C728.3 601 685.7 601 642.8 601C600 601 557 601 514.2 601C471.3 601 428.7 601 385.8 601C343 601 300 601 257.2 601C214.3 601 171.7 601 128.8 601C86 601 43 601 21.5 601L0 601Z" fill="#DEFF54" stroke-linecap="round" stroke-linejoin="miter"></path></svg>