<svg id="visual" viewBox="0 0 900 600" width="900" height="600" xmlns="http://www.w3.org/2000/svg" xmlns:xlink="http://www.w3.org/1999/xlink" version="1.1"><rect x="0" y="0" width="900" height="600" fill="#ffffff"></rect><path d="M0 494L21.5 503.8C43 513.7 86 533.3 128.8 546.2C171.7 559 214.3 565 257.2 556.3C300 547.7 343 524.3 385.8 507.8C428.7 491.3 471.3 481.7 514.2 486.8C557 492 600 512 642.8 515.2C685.7 518.3 728.3 504.7 771.2 495.7C814 486.7 857 482.3 878.5 480.2L900 478L900 601L878.5 601C857 601 814 601 771.2 601C728.3 601 685.7 601 642.8 601C600 601 557 601 514.2 601C471.3 601 428.7 601 385.8 601C343 601 300 601 257.2 601C214.3 601 171.7 601 128.8 601C86 601 43 601 21.5 601L0 601Z" fill="#FFAB3B" stroke-linecap="round" stroke-linejoin="miter"></path></svg>